<svg width="30" height="30" viewBox="0 0 30 30" fill="none" xmlns="http://www.w3.org/2000/svg">
<path fill-rule="evenodd" clip-rule="evenodd" d="M15.0001 0C6.71688 0 0 6.88559 0 15.3798C0 22.175 4.29799 27.9399 10.258 29.9736C11.0077 30.116 11.2829 29.6399 11.2829 29.2337C11.2829 28.867 11.269 27.6555 11.2625 26.3704C7.08948 27.3007 6.20892 24.5557 6.20892 24.5557C5.52656 22.778 4.5434 22.3053 4.5434 22.3053C3.18245 21.3508 4.64599 21.3704 4.64599 21.3704C6.15228 21.4789 6.94542 22.9553 6.94542 22.9553C8.28324 25.3065 10.4545 24.6268 11.3105 24.2338C11.4451 23.2398 11.8338 22.5613 12.2628 22.1773C8.93106 21.7883 5.42869 20.4696 5.42869 14.5765C5.42869 12.8974 6.01464 11.5254 6.97422 10.4484C6.81846 10.061 6.30504 8.4967 7.11954 6.37824C7.11954 6.37824 8.37912 5.9649 11.2456 7.95478C12.4421 7.61397 13.7254 7.44307 15.0001 7.43722C16.2749 7.44307 17.5591 7.61397 18.7579 7.95478C21.6209 5.9649 22.8787 6.37824 22.8787 6.37824C23.6952 8.4967 23.1815 10.061 23.0258 10.4484C23.9876 11.5254 24.5696 12.8974 24.5696 14.5765C24.5696 20.4836 21.0605 21.7843 17.7203 22.165C18.2584 22.6423 18.7378 23.5783 18.7378 25.0131C18.7378 27.071 18.7204 28.7271 18.7204 29.2337C18.7204 29.643 18.9904 30.1226 19.7507 29.9715C25.7075 27.9356 30 22.1726 30 15.3798C30 6.88559 23.2841 0 15.0001 0ZM5.61803 21.9088C5.585 21.9852 5.46775 22.0081 5.36095 21.9557C5.25215 21.9055 5.19104 21.8013 5.22631 21.7247C5.2586 21.646 5.3761 21.6241 5.48465 21.6768C5.59369 21.7269 5.65578 21.8321 5.61803 21.9088ZM6.35586 22.5838C6.28434 22.6518 6.14448 22.6202 6.04962 22.5128C5.95146 22.4055 5.9331 22.2621 6.00564 22.1931C6.07938 22.1251 6.21504 22.1569 6.31338 22.2642C6.41154 22.3727 6.43062 22.515 6.35586 22.5838ZM6.86208 23.4475C6.77016 23.5129 6.61986 23.4515 6.52698 23.3148C6.43506 23.178 6.43506 23.014 6.52896 22.9483C6.62208 22.8826 6.77016 22.9417 6.8643 23.0775C6.95598 23.2165 6.95598 23.3805 6.86208 23.4475ZM7.7181 24.4478C7.6359 24.5407 7.46082 24.5158 7.3326 24.3889C7.20144 24.2649 7.16496 24.0889 7.2474 23.9959C7.33062 23.9027 7.50672 23.929 7.6359 24.0548C7.76604 24.1786 7.80582 24.3558 7.7181 24.4478ZM8.8245 24.7855C8.78826 24.9059 8.6196 24.9607 8.44968 24.9095C8.28006 24.8568 8.169 24.7156 8.20326 24.5939C8.23854 24.4727 8.40798 24.4156 8.5791 24.4704C8.74848 24.5228 8.85978 24.6629 8.8245 24.7855ZM10.0836 24.9287C10.0879 25.0555 9.9438 25.1607 9.76542 25.163C9.58608 25.1671 9.441 25.0644 9.43902 24.9396C9.43902 24.8115 9.5799 24.7073 9.75924 24.7043C9.93756 24.7007 10.0836 24.8026 10.0836 24.9287ZM11.3206 24.8801C11.3419 25.0038 11.218 25.1309 11.0408 25.1648C10.8667 25.1974 10.7056 25.121 10.6834 24.9982C10.6618 24.8714 10.788 24.7443 10.9619 24.7114C11.1392 24.6799 11.2979 24.7543 11.3206 24.8801Z" fill="white"/>
</svg>
